<svg viewBox="0 0 30 30" fill="none" xmlns="http://www.w3.org/2000/svg">
<g clip-path="url(#clip0_17_162)">
<path d="M14.3315 -0.0139628C14.3791 -0.0145419 14.4268 -0.0151211 14.4758 -0.0157178C15.5278 -0.0258604 16.5519 -0.0260399 17.5782 0.234374C17.6383 0.24948 17.6984 0.264586 17.7604 0.28015C19.6468 0.771741 21.323 1.70625 22.7344 3.04687C22.765 3.07554 22.7956 3.1042 22.8271 3.13373C24.7614 4.95758 26.1803 7.69053 26.2604 10.3863C26.2619 10.4757 26.2631 10.5651 26.264 10.6544C26.2646 10.703 26.2652 10.7515 26.2658 10.8015C26.3211 16.6827 22.9573 21.8325 18.7784 26.6174C18.6621 26.7452 18.5479 26.8743 18.4344 27.0046C17.9012 27.6154 17.3362 28.1974 16.7651 28.7726C16.6833 28.8551 16.6016 28.9379 16.52 29.0206C15.536 30.006 15.536 30.006 15.0147 30.0183C14.9546 30.0205 14.8945 30.0227 14.8325 30.0249C14.4517 29.9733 14.1853 29.6763 13.9161 29.4214C13.8794 29.3869 13.8427 29.3524 13.8049 29.3169C13.4459 28.9764 13.0946 28.6281 12.7442 28.2788C12.6896 28.2245 12.635 28.1702 12.5788 28.1143C12.3136 27.8485 12.0562 27.5798 11.8118 27.2948C11.6614 27.1212 11.5028 26.9554 11.3453 26.7883C11.0727 26.4971 10.8134 26.1995 10.5641 25.8879C10.4394 25.7346 10.3113 25.5852 10.1815 25.4363C9.784 24.9798 9.41602 24.5043 9.05195 24.0209C8.97546 23.9202 8.89798 23.8204 8.81955 23.7211C6.57751 20.8706 4.73692 17.5137 3.96977 13.9526C3.96091 13.9116 3.95205 13.8706 3.94292 13.8284C3.77573 13.008 3.72626 12.2054 3.72808 11.3708C3.72809 11.3181 3.7281 11.2654 3.72811 11.211C3.73009 10.3662 3.7801 9.55371 3.98442 8.73047C3.99571 8.6847 4.00699 8.63892 4.01861 8.59177C4.0927 8.30159 4.18007 8.01754 4.27739 7.73437C4.29052 7.69578 4.30366 7.65718 4.31719 7.61742C4.76797 6.31184 5.40639 5.07998 6.32817 4.04297C6.38799 3.97363 6.38799 3.97363 6.44902 3.90289C8.28014 1.81596 10.66 0.475279 13.418 0.0585928C13.4807 0.0483772 13.5433 0.0381616 13.6079 0.0276365C13.8506 -0.00281121 14.0872 -0.0115321 14.3315 -0.0139628ZM10.275 7.1741C9.11477 8.5073 8.67661 10.2181 8.78911 11.9531C8.97125 13.574 9.8129 14.9768 11.0157 16.0547C12.3994 17.1563 14.1044 17.6406 15.862 17.4431C17.4789 17.1996 18.9281 16.3356 19.946 15.057C20.9511 13.6622 21.4205 12.0082 21.1707 10.2926C20.8867 8.6384 19.9919 7.15798 18.6219 6.17065C15.9036 4.37456 12.4839 4.75209 10.275 7.1741Z" fill="currentcolor"></path></g></svg>