<svg xmlns="http://www.w3.org/2000/svg" xmlns:xlink="http://www.w3.org/1999/xlink" viewBox="0 0 32 31" width="32" height="31" preserveAspectRatio="xMidYMid meet" style="width: 100%; height: 100%; transform: translate3d(0px, 0px, 0px); content-visibility: visible;"><defs><clipPath id="__lottie_element_7"><rect width="32" height="31" x="0" y="0"></rect></clipPath></defs><g clip-path="url(#__lottie_element_7)"><g transform="matrix(1,0,0,1,0,0)" opacity="1" style="display: block;"><g opacity="1" transform="matrix(1,0,0,1,0,0)"><path fill="rgb(0,0,0)" fill-opacity="1" d=" M6.117400169372559,21.928300857543945 C6.150430202484131,22.010900497436523 6.172669887542725,22.060699462890625 6.222710132598877,22.129100799560547 C6.234620094299316,22.14550018310547 6.246530055999756,22.16189956665039 6.258800029754639,22.178699493408203 C6.271470069885254,22.195899963378906 6.284140110015869,22.21310043334961 6.297190189361572,22.23069953918457 C6.310219764709473,22.248600006103516 6.323239803314209,22.266399383544922 6.336669921875,22.284799575805664 C6.374939918518066,22.336999893188477 6.413380146026611,22.38909912109375 6.451889991760254,22.441200256347656 C6.461909770965576,22.45479965209961 6.471930027008057,22.468399047851562 6.482250213623047,22.48240089416504 C6.714620113372803,22.797300338745117 6.96274995803833,23.09950065612793 7.226459980010986,23.388700485229492 C7.253819942474365,23.41900062561035 7.281050205230713,23.449499130249023 7.307469844818115,23.480600357055664 C7.425650119781494,23.619199752807617 7.553840160369873,23.74720001220703 7.682769775390625,23.875699996948242 C7.721499919891357,23.9143009185791 7.760109901428223,23.952999114990234 7.798709869384766,23.99180030822754 C7.925789833068848,24.118900299072266 8.053730010986328,24.243000030517578 8.191269874572754,24.358999252319336 C8.21621036529541,24.380699157714844 8.241120338439941,24.40239906311035 8.266010284423828,24.424100875854492 C9.859189987182617,25.80430030822754 11.801600456237793,26.74090003967285 15.461000442504883,27.302499771118164 C15.469400405883789,27.287799835205078 15.477899551391602,27.273000717163086 15.486700057983398,27.25779914855957 C15.65369987487793,26.96780014038086 15.821200370788574,26.67799949645996 15.99020004272461,26.38909912109375 C16.084800720214844,26.227100372314453 16.178600311279297,26.06450080871582 16.2721004486084,25.90180015563965 C16.386199951171875,25.703399658203125 16.50200080871582,25.506099700927734 16.61910057067871,25.309499740600586 C16.74839973449707,25.09239959716797 16.874799728393555,24.873899459838867 16.99959945678711,24.654199600219727 C17.12339973449707,24.436399459838867 17.25040054321289,24.220600128173828 17.378700256347656,24.005399703979492 C17.484800338745117,23.82699966430664 17.58839988708496,23.64739990234375 17.690900802612305,23.466999053955078 C17.808300018310547,23.260400772094727 17.927600860595703,23.055099487304688 18.049100875854492,22.85099983215332 C18.164600372314453,22.65679931640625 18.279699325561523,22.462299346923828 18.39299964904785,22.26689910888672 C18.415199279785156,22.228700637817383 18.4375,22.190500259399414 18.459800720214844,22.152299880981445 C18.479700088500977,22.118000030517578 18.479700088500977,22.118000030517578 18.5,22.08289909362793 C18.511699676513672,22.062700271606445 18.523500442504883,22.042499542236328 18.535600662231445,22.0216007232666 C18.56399917602539,21.975400924682617 18.56399917602539,21.975400924682617 18.56060028076172,21.928300857543945 C14.454299926757812,21.928300857543945 10.348099708557129,21.928300857543945 6.117400169372559,21.928300857543945 C6.117400169372559,21.928300857543945 6.117400169372559,21.928300857543945 6.117400169372559,21.928300857543945z M22.842100143432617,16.46489906311035 C22.833900451660156,16.479299545288086 22.825599670410156,16.49370002746582 22.817100524902344,16.50860023498535 C22.65679931640625,16.787799835205078 22.495399475097656,17.066299438476562 22.33060073852539,17.342899322509766 C22.201400756835938,17.559999465942383 22.075000762939453,17.778499603271484 21.950199127197266,17.998199462890625 C21.8262996673584,18.215999603271484 21.69930076599121,18.431800842285156 21.57110023498535,18.64699935913086 C21.46500015258789,18.82539939880371 21.361400604248047,19.0049991607666 21.258899688720703,19.185400009155273 C21.127700805664062,19.416400909423828 20.993499755859375,19.645299911499023 20.857500076293945,19.87350082397461 C20.74370002746582,20.064800262451172 20.63290023803711,20.25749969482422 20.523099899291992,20.451000213623047 C20.411500930786133,20.647499084472656 20.297300338745117,20.842300415039062 20.181499481201172,21.036300659179688 C20.065799713134766,21.230199813842773 19.953899383544922,21.425600051879883 19.846200942993164,21.624099731445312 C19.78030014038086,21.74530029296875 19.7101993560791,21.863000869750977 19.636899948120117,21.979999542236328 C19.46769905090332,22.252399444580078 19.31100082397461,22.533100128173828 19.151100158691406,22.811100006103516 C19.137500762939453,22.834800720214844 19.12380027770996,22.858600616455078 19.109699249267578,22.882999420166016 C19.09589958190918,22.907100677490234 19.08209991455078,22.931100845336914 19.067800521850586,22.955900192260742 C18.967500686645508,23.129899978637695 18.86549949645996,23.302799224853516 18.762699127197266,23.475299835205078 C18.633399963378906,23.692399978637695 18.506999969482422,23.910900115966797 18.382200241088867,24.130599975585938 C18.258399963378906,24.348400115966797 18.131399154663086,24.564199447631836 18.00309944152832,24.779399871826172 C17.89699935913086,24.957799911499023 17.793399810791016,25.137399673461914 17.690900802612305,25.317899703979492 C17.574100494384766,25.523500442504883 17.4552001953125,25.7278995513916 17.3341007232666,25.931100845336914 C17.165700912475586,26.213699340820312 17.002500534057617,26.499000549316406 16.839799880981445,26.784900665283203 C16.74530029296875,26.95050048828125 16.649499893188477,27.115400314331055 16.553600311279297,27.28019905090332 C16.619600296020508,27.313199996948242 16.67329978942871,27.299800872802734 16.746700286865234,27.29400062561035 C16.761899948120117,27.292800903320312 16.777000427246094,27.29159927368164 16.792699813842773,27.290300369262695 C16.84309959411621,27.28619956970215 16.89349937438965,27.28190040588379 16.943899154663086,27.27739906311035 C16.961299896240234,27.27589988708496 16.978700637817383,27.27440071105957 16.996599197387695,27.27280044555664 C18.95829963684082,27.09910011291504 20.813100814819336,26.445600509643555 23.163299560546875,24.877500534057617 C23.200199127197266,24.848600387573242 23.237300872802734,24.81999969482422 23.274499893188477,24.791400909423828 C23.6919002532959,24.468799591064453 24.074499130249023,24.109500885009766 24.44770050048828,23.73740005493164 C24.45870018005371,23.72640037536621 24.46980094909668,23.71540069580078 24.481199264526367,23.704099655151367 C24.608699798583984,23.57710075378418 24.732500076293945,23.448200225830078 24.84910011291504,23.31089973449707 C24.870800018310547,23.285999298095703 24.892499923706055,23.26099967956543 24.9143009185791,23.236099243164062 C25.232799530029297,22.868499755859375 25.530099868774414,22.481599807739258 25.801000595092773,22.07740020751953 C25.809900283813477,22.064199447631836 25.81879997253418,22.05109977722168 25.827899932861328,22.037500381469727 C25.851600646972656,22.00149917602539 25.874399185180664,21.96489906311035 25.897199630737305,21.928300857543945 C25.910400390625,21.907400131225586 25.923599243164062,21.886499404907227 25.93709945678711,21.864999771118164 C25.971799850463867,21.796199798583984 25.971799850463867,21.796199798583984 25.94420051574707,21.731199264526367 C25.931100845336914,21.709400177001953 25.91790008544922,21.687700271606445 25.904300689697266,21.665199279785156 C25.882400512695312,21.62809944152832 25.882400512695312,21.62809944152832 25.86009979248047,21.590200424194336 C25.843700408935547,21.563499450683594 25.827199935913086,21.53689956665039 25.810800552368164,21.51020050048828 C25.794099807739258,21.4822998046875 25.77750015258789,21.45439910888672 25.76099967956543,21.42650032043457 C25.726900100708008,21.368999481201172 25.6924991607666,21.311599731445312 25.657899856567383,21.2544002532959 C25.582300186157227,21.128999710083008 25.510000228881836,21.001699447631836 25.437299728393555,20.87459945678711 C25.318199157714844,20.66819953918457 25.198299407958984,20.462299346923828 25.078100204467773,20.25659942626953 C24.940500259399414,20.021099090576172 24.804399490356445,19.784799575805664 24.66830062866211,19.548500061035156 C24.598499298095703,19.427499771118164 24.52869987487793,19.306499481201172 24.458900451660156,19.185400009155273 C24.430999755859375,19.137100219726562 24.403099060058594,19.08880043029785 24.375200271606445,19.04050064086914 C24.361400604248047,19.016599655151367 24.34760093688965,18.992700576782227 24.33340072631836,18.968000411987305 C24.20800018310547,18.750600814819336 24.20800018310547,18.750600814819336 24.166200637817383,18.6781005859375 C24.1382999420166,18.62980079650879 24.11050033569336,18.581600189208984 24.082599639892578,18.533300399780273 C24.01259994506836,18.41200065612793 23.94260025024414,18.290599822998047 23.872699737548828,18.169200897216797 C23.725299835205078,17.91349983215332 23.57740020751953,17.658000946044922 23.42840003967285,17.403200149536133 C23.32819938659668,17.23150062561035 23.228599548339844,17.05940055847168 23.129199981689453,16.88719940185547 C23.11520004272461,16.862899780273438 23.101200103759766,16.838600158691406 23.08679962158203,16.813600540161133 C23.019899368286133,16.697500228881836 22.953100204467773,16.581300735473633 22.886699676513672,16.46489906311035 C22.871999740600586,16.46489906311035 22.8572998046875,16.46489906311035 22.842100143432617,16.46489906311035 C22.842100143432617,16.46489906311035 22.842100143432617,16.46489906311035 22.842100143432617,16.46489906311035z M5.4930100440979,10.10949993133545 C5.296750068664551,10.504400253295898 5.116099834442139,10.901700019836426 4.957819938659668,11.313699722290039 C4.948369979858398,11.338199615478516 4.938920021057129,11.362700462341309 4.929180145263672,11.387900352478027 C4.596519947052002,12.259300231933594 4.379449844360352,13.175700187683105 4.2665300369262695,14.101099967956543 C4.263189792633057,14.127099990844727 4.259860038757324,14.15310001373291 4.256420135498047,14.179900169372559 C4.145380020141602,15.076700210571289 4.1497697830200195,16.014799118041992 4.2665300369262695,16.910900115966797 C4.270279884338379,16.94070053100586 4.274020195007324,16.970600128173828 4.277760028839111,17.00040054321289 C4.4189300537109375,18.10890007019043 4.7245001792907715,20.156299591064453 5.537610054016113,20.96940040588379 C5.570740222930908,20.971599578857422 5.603970050811768,20.972200393676758 5.63716983795166,20.972200393676758 C5.658810138702393,20.972200393676758 5.680449962615967,20.972299575805664 5.70274019241333,20.972299575805664 C5.738830089569092,20.972200393676758 5.738830089569092,20.972200393676758 5.77564001083374,20.97209930419922 C5.813640117645264,20.97209930419922 5.813640117645264,20.97209930419922 5.852409839630127,20.972200393676758 C5.92303991317749,20.972200393676758 5.9936699867248535,20.97209930419922 6.064300060272217,20.972000122070312 C6.140349864959717,20.971900939941406 6.216400146484375,20.971900939941406 6.292449951171875,20.972000122070312 C6.424320220947266,20.972000122070312 6.556190013885498,20.971900939941406 6.688049793243408,20.971799850463867 C6.87870979309082,20.971599578857422 7.069369792938232,20.971500396728516 7.2600297927856445,20.971500396728516 C7.569320201873779,20.971500396728516 7.878620147705078,20.97130012512207 8.187919616699219,20.971099853515625 C8.488450050354004,20.97089958190918 8.788979530334473,20.970699310302734 9.089509963989258,20.970600128173828 C9.117280006408691,20.970600128173828 9.117280006408691,20.970600128173828 9.145600318908691,20.970600128173828 C9.238470077514648,20.970600128173828 9.331330299377441,20.970600128173828 9.424189567565918,20.970500946044922 C10.195099830627441,20.970300674438477 10.965999603271484,20.969900131225586 11.736900329589844,20.96940040588379 C11.716099739074707,20.927400588989258 11.695300102233887,20.885400772094727 11.674400329589844,20.843299865722656 C11.662799835205078,20.819900512695312 11.651200294494629,20.796499252319336 11.639300346374512,20.77239990234375 C11.58329963684082,20.66309928894043 11.520899772644043,20.557899475097656 11.458200454711914,20.452299118041992 C11.347999572753906,20.265399932861328 11.24020004272461,20.077499389648438 11.13479995727539,19.88789939880371 C11.021100044250488,19.683700561523438 10.904800415039062,19.481199264526367 10.786600112915039,19.279600143432617 C10.687000274658203,19.109500885009766 10.588600158691406,18.938600540161133 10.490900039672852,18.76729965209961 C10.483499526977539,18.75429916381836 10.476099967956543,18.741300582885742 10.468400001525879,18.727800369262695 C10.4306001663208,18.66160011291504 10.392800331115723,18.595300674438477 10.35509967803955,18.52899932861328 C10.288000106811523,18.411399841308594 10.220800399780273,18.293899536132812 10.153599739074707,18.176300048828125 C10.116399765014648,18.111299514770508 10.079299926757812,18.046300888061523 10.042099952697754,17.981300354003906 C10.027299880981445,17.955299377441406 10.012399673461914,17.92919921875 9.997540473937988,17.903200149536133 C9.967809677124023,17.851200103759766 9.938070297241211,17.7992000579834 9.908340454101562,17.747100830078125 C9.900979995727539,17.73419952392578 9.893619537353516,17.721399307250977 9.886039733886719,17.708099365234375 C9.871170043945312,17.682100296020508 9.856300354003906,17.656099319458008 9.841440200805664,17.6299991607666 C9.804289817810059,17.565000534057617 9.76714038848877,17.5 9.729990005493164,17.434999465942383 C9.655340194702148,17.304399490356445 9.580730438232422,17.173799514770508 9.506159782409668,17.043100357055664 C9.424759864807129,16.90049934387207 9.343259811401367,16.75790023803711 9.261659622192383,16.615400314331055 C9.2466402053833,16.589099884033203 9.231619834899902,16.56290054321289 9.21660041809082,16.53660011291504 C9.164349555969238,16.44529914855957 9.111980438232422,16.354000091552734 9.05955982208252,16.262800216674805 C9.046290397644043,16.239599227905273 9.03302001953125,16.216400146484375 9.019350051879883,16.1924991607666 C8.956399917602539,16.083200454711914 8.891929626464844,15.975500106811523 8.82349967956543,15.869400024414062 C8.758370399475098,15.768099784851074 8.70127010345459,15.664999961853027 8.64702033996582,15.557600021362305 C8.549260139465332,15.3681001663208 8.44340991973877,15.184100151062012 8.335209846496582,15.000399589538574 C8.240480422973633,14.839300155639648 8.148289680480957,14.677000045776367 8.057470321655273,14.513699531555176 C7.943789958953857,14.309499740600586 7.827489852905273,14.107000350952148 7.709290027618408,13.905400276184082 C7.609630107879639,13.735199928283691 7.511270046234131,13.564399719238281 7.413569927215576,13.393099784851074 C7.406129837036133,13.38010025024414 7.39870023727417,13.36709976196289 7.391039848327637,13.353599548339844 C7.353240013122559,13.287400245666504 7.315470218658447,13.221099853515625 7.277699947357178,13.154800415039062 C7.2106499671936035,13.037199974060059 7.143439769744873,12.919599533081055 7.076240062713623,12.80210018157959 C7.0390801429748535,12.737099647521973 7.001930236816406,12.672100067138672 6.964789867401123,12.607000350952148 C6.949920177459717,12.581000328063965 6.935050010681152,12.555000305175781 6.92018985748291,12.529000282287598 C6.8904500007629395,12.47700023651123 6.860720157623291,12.42490005493164 6.830989837646484,12.372900009155273 C6.823629856109619,12.359999656677246 6.816269874572754,12.347100257873535 6.808690071105957,12.333900451660156 C6.793819904327393,12.307900428771973 6.778950214385986,12.281800270080566 6.764080047607422,12.255800247192383 C6.726960182189941,12.190799713134766 6.6898298263549805,12.125900268554688 6.6526899337768555,12.06089973449707 C6.585319995880127,11.942999839782715 6.517970085144043,11.825200080871582 6.45074987411499,11.707200050354004 C6.413050174713135,11.64109992980957 6.375339984893799,11.574899673461914 6.337609767913818,11.50879955291748 C6.330190181732178,11.495800018310547 6.322780132293701,11.482799530029297 6.3151397705078125,11.469400405883789 C6.212220191955566,11.28909969329834 6.108119964599609,11.10949993133545 6.003109931945801,10.930399894714355 C5.843989849090576,10.659000396728516 5.690370082855225,10.384599685668945 5.537610054016113,10.10949993133545 C5.522890090942383,10.10949993133545 5.508170127868652,10.10949993133545 5.4930100440979,10.10949993133545 C5.4930100440979,10.10949993133545 5.4930100440979,10.10949993133545 5.4930100440979,10.10949993133545z M20.255399703979492,10.04259967803955 C20.27630043029785,10.081000328063965 20.297199249267578,10.119500160217285 20.318199157714844,10.157899856567383 C20.3356990814209,10.1899995803833 20.3356990814209,10.1899995803833 20.353500366210938,10.222800254821777 C20.40920066833496,10.324399948120117 20.465900421142578,10.425399780273438 20.523000717163086,10.526200294494629 C20.535400390625,10.548199653625488 20.54789924621582,10.570300102233887 20.560699462890625,10.593000411987305 C20.662900924682617,10.773200035095215 20.76689910888672,10.952300071716309 20.87150001525879,11.130999565124512 C21.009899139404297,11.367600440979004 21.146799087524414,11.60509967803955 21.283599853515625,11.842599868774414 C21.353300094604492,11.963600158691406 21.423200607299805,12.084600448608398 21.493000030517578,12.205699920654297 C21.576900482177734,12.351099967956543 21.66080093383789,12.496600151062012 21.744699478149414,12.64210033416748 C21.879499435424805,12.87600040435791 22.01460075378418,13.109800338745117 22.150800704956055,13.342900276184082 C22.301300048828125,13.6003999710083 22.45039939880371,13.858699798583984 22.599300384521484,14.11709976196289 C22.66900062561035,14.238200187683105 22.73889923095703,14.359199523925781 22.808700561523438,14.480199813842773 C22.836599349975586,14.528499603271484 22.86440086364746,14.576899528503418 22.89229965209961,14.625200271606445 C22.906099319458008,14.649100303649902 22.91990089416504,14.67300033569336 22.934099197387695,14.697600364685059 C23.059600830078125,14.91510009765625 23.059600830078125,14.91510009765625 23.10140037536621,14.987500190734863 C23.129199981689453,15.035799980163574 23.157100677490234,15.084099769592285 23.184900283813477,15.132399559020996 C23.254899978637695,15.253700256347656 23.324899673461914,15.375100135803223 23.394800186157227,15.496399879455566 C23.529600143432617,15.730400085449219 23.6648006439209,15.964099884033203 23.801000595092773,16.19729995727539 C23.951499938964844,16.45479965209961 24.10059928894043,16.71310043334961 24.249399185180664,16.971500396728516 C24.31920051574707,17.092599868774414 24.388999938964844,17.213600158691406 24.458900451660156,17.3346004486084 C24.542800903320312,17.479999542236328 24.626699447631836,17.625499725341797 24.710500717163086,17.770999908447266 C24.845300674438477,18.0049991607666 24.980499267578125,18.23870086669922 25.11669921875,18.471900939941406 C25.267200469970703,18.729400634765625 25.41629981994629,18.987600326538086 25.565099716186523,19.2460994720459 C25.648700714111328,19.39109992980957 25.73240089416504,19.536100387573242 25.816099166870117,19.68120002746582 C25.88719940185547,19.804399490356445 25.95829963684082,19.92770004272461 26.029300689697266,20.051000595092773 C26.18470001220703,20.32080078125 26.340700149536133,20.590099334716797 26.499300003051758,20.857900619506836 C26.588300704956055,20.746999740600586 26.640600204467773,20.61840057373047 26.700000762939453,20.489999771118164 C26.70639991760254,20.476200103759766 26.71269989013672,20.462400436401367 26.71929931640625,20.448200225830078 C27.22010040283203,19.362499237060547 27.54949951171875,18.213199615478516 27.710399627685547,17.029399871826172 C27.713699340820312,17.005199432373047 27.716999053955078,16.98110008239746 27.720399856567383,16.956199645996094 C27.780899047851562,16.477800369262695 27.80109977722168,16.000499725341797 27.79960060119629,15.518500328063965 C27.79960060119629,15.490300178527832 27.79949951171875,15.461999893188477 27.79949951171875,15.432900428771973 C27.79840087890625,14.985099792480469 27.783700942993164,14.54539966583252 27.725799560546875,14.101099967956543 C27.722000122070312,14.07129955291748 27.718299865722656,14.041500091552734 27.714500427246094,14.01159954071045 C27.573400497436523,12.90310001373291 27.267799377441406,10.85569953918457 26.454700469970703,10.04259967803955 C26.421600341796875,10.040399551391602 26.3882999420166,10.039799690246582 26.355100631713867,10.039799690246582 C26.333499908447266,10.039799690246582 26.311800003051758,10.039799690246582 26.289499282836914,10.03969955444336 C26.265499114990234,10.039799690246582 26.24139976501465,10.039799690246582 26.216699600219727,10.039899826049805 C26.178600311279297,10.039899826049805 26.178600311279297,10.039899826049805 26.13990020751953,10.039899826049805 C26.06920051574707,10.039799690246582 25.998600006103516,10.039899826049805 25.92799949645996,10.039999961853027 C25.851900100708008,10.04010009765625 25.77589988708496,10.04010009765625 25.699800491333008,10.039999961853027 C25.56800079345703,10.039999961853027 25.436100006103516,10.04010009765625 25.30419921875,10.040200233459473 C25.11359977722168,10.040399551391602 24.92289924621582,10.040499687194824 24.7322998046875,10.040499687194824 C24.42300033569336,10.040499687194824 24.11370086669922,10.04069995880127 23.804399490356445,10.040900230407715 C23.503799438476562,10.041099548339844 23.20330047607422,10.041299819946289 22.902799606323242,10.041399955749512 C22.875,10.041399955749512 22.875,10.041399955749512 22.84670066833496,10.041399955749512 C22.753799438476562,10.041399955749512 22.660999298095703,10.041399955749512 22.568099975585938,10.041500091552734 C21.797199249267578,10.04170036315918 21.02630043029785,10.042099952697754 20.255399703979492,10.04259967803955 C20.255399703979492,10.04259967803955 20.255399703979492,10.04259967803955 20.255399703979492,10.04259967803955z M12.807299613952637,10.04259967803955 C12.798600196838379,10.058099746704102 12.789999961853027,10.073599815368652 12.781100273132324,10.089599609375 C12.741000175476074,10.161399841308594 12.700900077819824,10.233099937438965 12.660799980163574,10.304900169372559 C12.647199630737305,10.329299926757812 12.633600234985352,10.353599548339844 12.619500160217285,10.378800392150879 C12.528599739074707,10.541299819946289 12.435999870300293,10.702799797058105 12.34179973602295,10.863499641418457 C12.327400207519531,10.887999534606934 12.31309986114502,10.912500381469727 12.298299789428711,10.937700271606445 C12.281299591064453,10.966699600219727 12.281299591064453,10.966699600219727 12.263899803161621,10.996299743652344 C12.176300048828125,11.146100044250488 12.090399742126465,11.296699523925781 12.004500389099121,11.447500228881836 C11.894000053405762,11.641300201416016 11.78279972076416,11.834699630737305 11.670000076293945,12.027299880981445 C11.558300018310547,12.218000411987305 11.44789981842041,12.409500122070312 11.338299751281738,12.601499557495117 C11.330900192260742,12.614500045776367 11.32349967956543,12.6274995803833 11.315799713134766,12.640899658203125 C11.262900352478027,12.733699798583984 11.210000038146973,12.826399803161621 11.157099723815918,12.91919994354248 C11.096799850463867,13.025199890136719 11.036399841308594,13.131099700927734 10.975899696350098,13.237000465393066 C10.968500137329102,13.25 10.961099624633789,13.262999534606934 10.953399658203125,13.27649974822998 C10.838800430297852,13.47719955444336 10.722800254821777,13.677000045776367 10.605999946594238,13.876500129699707 C10.491499900817871,14.072500228881836 10.378800392150879,14.269499778747559 10.266400337219238,14.46660041809082 C10.13379955291748,14.699199676513672 10.000100135803223,14.931099891662598 9.866180419921875,15.1628999710083 C9.854209899902344,15.183799743652344 9.842229843139648,15.20479965209961 9.829899787902832,15.226400375366211 C9.809650421142578,15.261099815368652 9.788789749145508,15.29539966583252 9.76692008972168,15.329099655151367 C9.726969718933105,15.391599655151367 9.70674991607666,15.427900314331055 9.712759971618652,15.503000259399414 C9.730569839477539,15.575499534606934 9.754810333251953,15.626799583435059 9.792750358581543,15.690799713134766 C9.805930137634277,15.713399887084961 9.819100379943848,15.735899925231934 9.832679748535156,15.758999824523926 C9.84706974029541,15.78320026397705 9.861459732055664,15.807299613952637 9.876279830932617,15.832099914550781 C9.891409873962402,15.85789966583252 9.906510353088379,15.883600234985352 9.921589851379395,15.909299850463867 C9.94517993927002,15.949600219726562 9.968790054321289,15.989899635314941 9.992480278015137,16.030099868774414 C10.076800346374512,16.17329978942871 10.159199714660645,16.317699432373047 10.241399765014648,16.462099075317383 C10.263899803161621,16.501399993896484 10.286299705505371,16.540700912475586 10.308699607849121,16.579999923706055 C10.331199645996094,16.619400024414062 10.353799819946289,16.658899307250977 10.376299858093262,16.698299407958984 C10.420999526977539,16.77669906616211 10.465800285339355,16.854999542236328 10.510499954223633,16.933399200439453 C10.521499633789062,16.952699661254883 10.521499633789062,16.952699661254883 10.53279972076416,16.972400665283203 C10.555100440979004,17.01129913330078 10.577400207519531,17.05030059814453 10.599599838256836,17.08930015563965 C10.681599617004395,17.23270034790039 10.76360034942627,17.37619972229004 10.845499992370605,17.519699096679688 C10.997099876403809,17.785400390625 11.14900016784668,18.050899505615234 11.30210018157959,18.315799713134766 C11.462699890136719,18.593799591064453 11.621999740600586,18.872400283813477 11.781200408935547,19.15130043029785 C11.825900077819824,19.22960090637207 11.870599746704102,19.308000564575195 11.915399551391602,19.38629913330078 C11.922800064086914,19.399200439453125 11.930100440979004,19.412099838256836 11.937700271606445,19.42530059814453 C11.974800109863281,19.49020004272461 12.011899948120117,19.555099487304688 12.048999786376953,19.6200008392334 C12.116600036621094,19.73819923400879 12.184100151062012,19.85650062561035 12.251500129699707,19.974899291992188 C12.282099723815918,20.02869987487793 12.312800407409668,20.082500457763672 12.343500137329102,20.13629913330078 C12.3641996383667,20.172700881958008 12.38479995727539,20.2091007232666 12.405500411987305,20.245500564575195 C12.432499885559082,20.292800903320312 12.460100173950195,20.33970069885254 12.488300323486328,20.38629913330078 C12.528599739074707,20.455400466918945 12.560099601745605,20.52589988708496 12.590999603271484,20.599700927734375 C12.695799827575684,20.837400436401367 12.695799827575684,20.837400436401367 12.889699935913086,20.998300552368164 C13.068499565124512,21.04560089111328 13.252699851989746,21.037399291992188 13.436200141906738,21.034700393676758 C13.49779987335205,21.035200119018555 13.559399604797363,21.03660011291504 13.621100425720215,21.037799835205078 C13.770600318908691,21.0403995513916 13.920100212097168,21.0403995513916 14.069700241088867,21.0393009185791 C14.191399574279785,21.03849983215332 14.312999725341797,21.03860092163086 14.434700012207031,21.039400100708008 C14.460700035095215,21.039600372314453 14.460700035095215,21.039600372314453 14.487299919128418,21.03969955444336 C14.522600173950195,21.040000915527344 14.557900428771973,21.040199279785156 14.593199729919434,21.0403995513916 C14.923700332641602,21.042400360107422 15.25409984588623,21.04129981994629 15.584500312805176,21.039100646972656 C15.867500305175781,21.037399291992188 16.15019989013672,21.03860092163086 16.4330997467041,21.041799545288086 C16.762399673461914,21.045499801635742 17.09149932861328,21.047300338745117 17.420799255371094,21.04599952697754 C17.45599937438965,21.045900344848633 17.491199493408203,21.045799255371094 17.526399612426758,21.04560089111328 C17.543699264526367,21.04560089111328 17.56100082397461,21.045499801635742 17.578800201416016,21.045499801635742 C17.700199127197266,21.04520034790039 17.821500778198242,21.046300888061523 17.942800521850586,21.048099517822266 C18.090999603271484,21.050199508666992 18.23900032043457,21.050100326538086 18.38719940185547,21.047300338745117 C18.462799072265625,21.04599952697754 18.537799835205078,21.045900344848633 18.613500595092773,21.047800064086914 C18.886199951171875,21.055299758911133 18.886199951171875,21.055299758911133 19.140399932861328,20.96940040588379 C19.289499282836914,20.818199157714844 19.379100799560547,20.62849998474121 19.465499877929688,20.43670082092285 C19.5044002532959,20.351600646972656 19.549400329589844,20.273099899291992 19.59749984741211,20.193099975585938 C19.623600006103516,20.1471004486084 19.649599075317383,20.101200103759766 19.675600051879883,20.055099487304688 C19.806699752807617,19.824199676513672 19.94099998474121,19.595199584960938 20.07699966430664,19.36709976196289 C20.1830997467041,19.18869972229004 20.286699295043945,19.00909996032715 20.38920021057129,18.828699111938477 C20.52039909362793,18.597700119018555 20.654600143432617,18.368799209594727 20.790599822998047,18.140600204467773 C20.8966007232666,17.962200164794922 21.00029945373535,17.78260040283203 21.102800369262695,17.60219955444336 C21.219600677490234,17.396499633789062 21.33839988708496,17.19219970703125 21.4596004486084,16.98889923095703 C21.596799850463867,16.75860023498535 21.73110008239746,16.526899337768555 21.863300323486328,16.293699264526367 C21.936599731445312,16.164400100708008 22.010799407958984,16.03580093383789 22.087299346923828,15.90839958190918 C22.101999282836914,15.88379955291748 22.11669921875,15.859199523925781 22.131799697875977,15.833900451660156 C22.159700393676758,15.787300109863281 22.187700271606445,15.740900039672852 22.216100692749023,15.694700241088867 C22.2283992767334,15.673999786376953 22.240699768066406,15.653400421142578 22.253400802612305,15.632100105285645 C22.264299392700195,15.6141996383667 22.27519989013672,15.596199989318848 22.286500930786133,15.577699661254883 C22.31089973449707,15.518799781799316 22.30780029296875,15.4975004196167 22.28459930419922,15.43910026550293 C22.254600524902344,15.380599975585938 22.223600387573242,15.32349967956543 22.191299438476562,15.266300201416016 C22.17650032043457,15.239999771118164 22.17650032043457,15.239999771118164 22.161500930786133,15.213299751281738 C22.053800582885742,15.022199630737305 21.942899703979492,14.833100318908691 21.832000732421875,14.643799781799316 C21.748600006103516,14.501299858093262 21.666000366210938,14.358400344848633 21.583599090576172,14.215399742126465 C21.569700241088867,14.191300392150879 21.55579948425293,14.1673002243042 21.54159927368164,14.142499923706055 C21.513399124145508,14.093600273132324 21.485300064086914,14.0447998046875 21.45709991455078,13.99590015411377 C21.387399673461914,13.874899864196777 21.3174991607666,13.753800392150879 21.247699737548828,13.632800102233887 C21.21980094909668,13.584500312805176 21.191999435424805,13.536199569702148 21.164100646972656,13.487899780273438 C21.143400192260742,13.45199966430664 21.143400192260742,13.45199966430664 21.122299194335938,13.415399551391602 C20.99679946899414,13.197999954223633 20.99679946899414,13.197999954223633 20.954999923706055,13.125499725341797 C20.927200317382812,13.077199935913086 20.89929962158203,13.028900146484375 20.87150001525879,12.98069953918457 C20.80150032043457,12.859299659729004 20.73150062561035,12.73799991607666 20.66160011291504,12.616600036621094 C20.52680015563965,12.382699966430664 20.391599655151367,12.148900032043457 20.255399703979492,11.915800094604492 C20.147499084472656,11.731200218200684 20.040199279785156,11.546299934387207 19.933399200439453,11.361100196838379 C19.919599533081055,11.3371000289917 19.905799865722656,11.31309986114502 19.89150047302246,11.288399696350098 C19.820499420166016,11.16510009765625 19.74959945678711,11.041899681091309 19.678699493408203,10.918499946594238 C19.664400100708008,10.893699645996094 19.650100708007812,10.868800163269043 19.635400772094727,10.843199729919434 C19.608800888061523,10.79699993133545 19.582199096679688,10.750699996948242 19.555700302124023,10.704400062561035 C19.530500411987305,10.660499572753906 19.504499435424805,10.616999626159668 19.47800064086914,10.573800086975098 C19.44059944152832,10.510499954223633 19.412399291992188,10.44629955291748 19.38479995727539,10.378199577331543 C19.287799835205078,10.15839958190918 19.287799835205078,10.15839958190918 19.103099822998047,10.017000198364258 C18.935699462890625,9.979140281677246 18.76490020751953,9.985480308532715 18.59429931640625,9.990830421447754 C18.51650047302246,9.992770195007324 18.438800811767578,9.99209976196289 18.36090087890625,9.99176025390625 C18.22640037536621,9.991530418395996 18.091899871826172,9.992919921875 17.957399368286133,9.995439529418945 C17.76289939880371,9.999070167541504 17.568500518798828,10.000200271606445 17.374000549316406,10.000800132751465 C17.058300018310547,10.001799583435059 16.742799758911133,10.00469970703125 16.427200317382812,10.008899688720703 C16.120800018310547,10.012999534606934 15.814399719238281,10.016200065612793 15.50790023803711,10.018099784851074 C15.479499816894531,10.01830005645752 15.479499816894531,10.01830005645752 15.450599670410156,10.018400192260742 C15.35569953918457,10.019000053405762 15.2608003616333,10.019599914550781 15.165900230407715,10.020099639892578 C14.37969970703125,10.024800300598145 13.593500137329102,10.032600402832031 12.807299613952637,10.04259967803955 C12.807299613952637,10.04259967803955 12.807299613952637,10.04259967803955 12.807299613952637,10.04259967803955z M14.667900085449219,3.766629934310913 C14.651900291442871,3.768549919128418 14.63599967956543,3.770469903945923 14.619500160217285,3.7724499702453613 C12.991700172424316,3.970180034637451 11.391200065612793,4.49098014831543 9.988360404968262,5.346829891204834 C9.933910369873047,5.379970073699951 9.879170417785645,5.412539958953857 9.82427978515625,5.444940090179443 C9.341730117797852,5.731719970703125 8.888279914855957,6.069009780883789 8.458860397338867,6.430049896240234 C8.441439628601074,6.444630146026611 8.441439628601074,6.444630146026611 8.423660278320312,6.45950984954834 C8.116680145263672,6.717010021209717 7.828229904174805,6.9918599128723145 7.544579982757568,7.2746500968933105 C7.533539772033691,7.285620212554932 7.522500038146973,7.296599864959717 7.511129856109619,7.307909965515137 C7.3835601806640625,7.43494987487793 7.259749889373779,7.5638298988342285 7.143179893493652,7.701129913330078 C7.121490001678467,7.726059913635254 7.0997700691223145,7.750969886779785 7.078030109405518,7.775869846343994 C6.758590221405029,8.144610404968262 6.461420059204102,8.532910346984863 6.188479900360107,8.937359809875488 C6.1792402267456055,8.950929641723633 6.169990062713623,8.964500427246094 6.160470008850098,8.978469848632812 C6.099370002746582,9.069210052490234 6.099370002746582,9.069210052490234 6.072800159454346,9.172900199890137 C6.095640182495117,9.232390403747559 6.095640182495117,9.232390403747559 6.132820129394531,9.294509887695312 C6.146369934082031,9.318619728088379 6.1599202156066895,9.342740058898926 6.173880100250244,9.36758041381836 C6.188960075378418,9.393750190734863 6.204050064086914,9.419919967651367 6.21914005279541,9.446069717407227 C6.234580039978027,9.47329044342041 6.25,9.500510215759277 6.265399932861328,9.527739524841309 C6.312280178070068,9.610400199890137 6.3597002029418945,9.692740440368652 6.407289981842041,9.77499008178711 C6.427509784698486,9.809940338134766 6.427509784698486,9.809940338134766 6.448130130767822,9.845580101013184 C6.511579990386963,9.954970359802246 6.575429916381836,10.06410026550293 6.639440059661865,10.173199653625488 C6.725719928741455,10.32040023803711 6.810530185699463,10.468500137329102 6.895100116729736,10.616800308227539 C6.90254020690918,10.629799842834473 6.909969806671143,10.642900466918945 6.917630195617676,10.656299591064453 C6.955420017242432,10.722599983215332 6.993199825286865,10.788800239562988 7.030970096588135,10.85509967803955 C7.098020076751709,10.972700119018555 7.165229797363281,11.090299606323242 7.2324299812316895,11.207799911499023 C7.269579887390137,11.27280044555664 7.306729793548584,11.337900161743164 7.3438801765441895,11.402899742126465 C7.358749866485596,11.428899765014648 7.373610019683838,11.454899787902832 7.388480186462402,11.480899810791016 C7.418210029602051,11.532999992370605 7.4479498863220215,11.585000038146973 7.477680206298828,11.63700008392334 C7.485040187835693,11.649900436401367 7.492390155792236,11.662799835205078 7.4999799728393555,11.675999641418457 C7.514840126037598,11.702099800109863 7.529709815979004,11.728099822998047 7.544579982757568,11.75409984588623 C7.581729888916016,11.819100379943848 7.618869781494141,11.884099960327148 7.656030178070068,11.94909954071045 C7.7231597900390625,12.06659984588623 7.790279865264893,12.184100151062012 7.857339859008789,12.301600456237793 C8.008959770202637,12.567299842834473 8.160889625549316,12.832799911499023 8.313909530639648,13.097599983215332 C8.587860107421875,13.571900367736816 8.858969688415527,14.047699928283691 9.127849578857422,14.524800300598145 C9.199549674987793,14.459099769592285 9.244779586791992,14.393899917602539 9.29109001159668,14.308500289916992 C9.304739952087402,14.283599853515625 9.318400382995605,14.258700370788574 9.332460403442383,14.232999801635742 C9.339550018310547,14.219900131225586 9.346639633178711,14.20680046081543 9.353949546813965,14.193300247192383 C9.391240119934082,14.12440013885498 9.42903995513916,14.055800437927246 9.466790199279785,13.987199783325195 C9.474209785461426,13.973699569702148 9.481639862060547,13.960100173950195 9.489290237426758,13.946200370788574 C9.545000076293945,13.844799995422363 9.60239028930664,13.74470043182373 9.661649703979492,13.645400047302246 C9.758910179138184,13.482099533081055 9.853289604187012,13.31719970703125 9.947360038757324,13.152000427246094 C10.059700012207031,12.954899787902832 10.172800064086914,12.758199691772461 10.287400245666504,12.5625 C10.407299995422363,12.357600212097168 10.52560043334961,12.151900291442871 10.643199920654297,11.945699691772461 C10.750800132751465,11.756999969482422 10.85890007019043,11.568599700927734 10.967599868774414,11.380599975585938 C11.083399772644043,11.18019962310791 11.19849967956543,10.979499816894531 11.313199996948242,10.778499603271484 C11.496899604797363,10.456700325012207 11.682100296020508,10.135700225830078 11.867500305175781,9.814929962158203 C11.909000396728516,9.74308967590332 11.950499534606934,9.671239852905273 11.991999626159668,9.599379539489746 C12.00570011138916,9.575610160827637 12.019399642944336,9.551839828491211 12.033599853515625,9.527350425720215 C12.144000053405762,9.335920333862305 12.253600120544434,9.144009590148926 12.36299991607666,8.952030181884766 C12.477999687194824,8.750439643859863 12.594499588012695,8.54973030090332 12.711700439453125,8.34945011138916 C12.81879997253418,8.166319847106934 12.924200057983398,7.982269763946533 13.029199600219727,7.797989845275879 C13.136799812316895,7.60929012298584 13.24489974975586,7.420899868011475 13.353599548339844,7.232830047607422 C13.469400405883789,7.0324602127075195 13.584600448608398,6.831739902496338 13.699299812316895,6.630740165710449 C13.88290023803711,6.308929920196533 14.068099975585938,5.988009929656982 14.253499984741211,5.667200088500977 C14.295000076293945,5.595359802246094 14.33650016784668,5.523509979248047 14.378000259399414,5.451650142669678 C14.391799926757812,5.427879810333252 14.405500411987305,5.404099941253662 14.419599533081055,5.379610061645508 C14.491999626159668,5.254069805145264 14.564200401306152,5.128399848937988 14.63599967956543,5.0025200843811035 C14.643500328063965,4.989449977874756 14.651000022888184,4.976369857788086 14.658599853515625,4.962900161743164 C14.688699722290039,4.910160064697266 14.718799591064453,4.857409954071045 14.748900413513184,4.804659843444824 C14.828700065612793,4.664539813995361 14.909000396728516,4.524700164794922 14.990699768066406,4.3856201171875 C15.004599571228027,4.361849784851074 15.018600463867188,4.338079929351807 15.032899856567383,4.313590049743652 C15.058899879455566,4.269489765167236 15.08489990234375,4.225430011749268 15.111000061035156,4.181429862976074 C15.197400093078613,4.034749984741211 15.274999618530273,3.884850025177002 15.349499702453613,3.731790065765381 C15.119500160217285,3.727169990539551 14.896499633789062,3.7385900020599365 14.667900085449219,3.766629934310913 C14.667900085449219,3.766629934310913 14.667900085449219,3.766629934310913 14.667900085449219,3.766629934310913z M16.464399337768555,3.7094900608062744 C16.344499588012695,3.901870012283325 16.22920036315918,4.096189975738525 16.117399215698242,4.293459892272949 C16.086000442504883,4.348609924316406 16.05459976196289,4.403749942779541 16.0231990814209,4.4588799476623535 C16.015399932861328,4.472720146179199 16.00749969482422,4.4865498542785645 15.99940013885498,4.500810146331787 C15.92080020904541,4.638760089874268 15.841500282287598,4.77623987197876 15.76200008392334,4.913670063018799 C15.646200180053711,5.114039897918701 15.531000137329102,5.314760208129883 15.416399955749512,5.5157599449157715 C15.23270034790039,5.83758020401001 15.047499656677246,6.158490180969238 14.862099647521973,6.479310035705566 C14.820599555969238,6.551149845123291 14.77910041809082,6.623000144958496 14.737600326538086,6.694849967956543 C14.723899841308594,6.718629837036133 14.710200309753418,6.742400169372559 14.696000099182129,6.766890048980713 C14.585599899291992,6.958320140838623 14.47599983215332,7.1502299308776855 14.366499900817871,7.342209815979004 C14.251700401306152,7.543570041656494 14.13539981842041,7.744060039520264 14.01830005645752,7.9440999031066895 C13.899999618530273,8.146320343017578 13.78380012512207,8.34965991973877 13.667900085449219,8.55321979522705 C13.646900177001953,8.59004020690918 13.646900177001953,8.59004020690918 13.625499725341797,8.627610206604004 C13.612000465393066,8.651390075683594 13.598400115966797,8.675180435180664 13.584500312805176,8.699689865112305 C13.52910041809082,8.795949935913086 13.472299575805664,8.891340255737305 13.415300369262695,8.986599922180176 C13.383600234985352,9.035719871520996 13.383600234985352,9.035719871520996 13.387100219726562,9.083709716796875 C17.508100509643555,9.083709716796875 21.628999710083008,9.083709716796875 25.874900817871094,9.083709716796875 C25.841899871826172,9.001130104064941 25.819599151611328,8.951299667358398 25.76959991455078,8.882920265197754 C25.757699966430664,8.86653995513916 25.745800018310547,8.850150108337402 25.73349952697754,8.833270072937012 C25.714500427246094,8.807530403137207 25.714500427246094,8.807530403137207 25.695100784301758,8.781270027160645 C25.682100296020508,8.763440132141113 25.66900062561035,8.745619773864746 25.65559959411621,8.727259635925293 C25.617399215698242,8.675009727478027 25.578899383544922,8.62289047241211 25.5403995513916,8.570810317993164 C25.530399322509766,8.557220458984375 25.52039909362793,8.54362964630127 25.510000228881836,8.529620170593262 C25.277700424194336,8.214730262756348 25.029499053955078,7.912479877471924 24.76580047607422,7.623340129852295 C24.738500595092773,7.5929999351501465 24.711200714111328,7.562530040740967 24.684799194335938,7.531370162963867 C24.566600799560547,7.3927998542785645 24.438400268554688,7.264790058135986 24.309499740600586,7.1363301277160645 C24.27079963684082,7.097720146179199 24.232200622558594,7.058990001678467 24.193599700927734,7.020249843597412 C24.066499710083008,6.893089771270752 23.938600540161133,6.769000053405762 23.801000595092773,6.653039932250977 C23.776100158691406,6.631360054016113 23.75119972229004,6.609640121459961 23.726299285888672,6.587890148162842 C22.270599365234375,5.326849937438965 20.52359962463379,4.439879894256592 18.649799346923828,3.999380111694336 C18.62339973449707,3.9931800365448 18.597000122070312,3.9869699478149414 18.569799423217773,3.9805800914764404 C17.87660026550293,3.8208301067352295 17.174299240112305,3.7409799098968506 16.464399337768555,3.7094900608062744 C16.464399337768555,3.7094900608062744 16.464399337768555,3.7094900608062744 16.464399337768555,3.7094900608062744z M17.49020004272461,2.8397998809814453 C17.505599975585938,2.8416900634765625 17.520999908447266,2.843590021133423 17.536800384521484,2.8455400466918945 C19.47640037536621,3.0843000411987305 21.32430076599121,3.7654099464416504 24.114999771118164,5.680409908294678 C24.155099868774414,5.714159965515137 24.19540023803711,5.747700214385986 24.235700607299805,5.781179904937744 C24.465700149536133,5.972919940948486 24.68549919128418,6.174560070037842 24.89550018310547,6.388060092926025 C24.931800842285156,6.423620223999023 24.968299865722656,6.455699920654297 25.007999420166016,6.487189769744873 C25.074499130249023,6.543590068817139 25.127599716186523,6.603819847106934 25.183900833129883,6.670030117034912 C25.233800888061523,6.726210117340088 25.286300659179688,6.778719902038574 25.33970069885254,6.831439971923828 C25.433700561523438,6.924630165100098 25.521499633789062,7.0206098556518555 25.6072998046875,7.121339797973633 C25.62689971923828,7.143740177154541 25.646499633789062,7.166130065917969 25.666200637817383,7.188499927520752 C25.82819938659668,7.3738298416137695 25.979799270629883,7.565609931945801 26.127300262451172,7.762639999389648 C26.165000915527344,7.812849998474121 26.202800750732422,7.862870216369629 26.240699768066406,7.9128899574279785 C27.449499130249023,9.51928997039795 28.257600784301758,11.437100410461426 28.656600952148438,13.944499969482422 C28.66200065612793,13.987099647521973 28.667800903320312,14.02970027923584 28.673500061035156,14.07229995727539 C28.79840087890625,15.025199890136719 28.790300369262695,16.070600509643555 28.66230010986328,17.02239990234375 C28.658599853515625,17.052499771118164 28.654800415039062,17.082599639892578 28.651100158691406,17.112699508666992 C28.43000030517578,18.890399932861328 27.825899124145508,20.6294002532959 26.566200256347656,22.64189910888672 C26.556699752807617,22.65570068359375 26.547199249267578,22.66939926147461 26.537399291992188,22.6835994720459 C26.170799255371094,23.213600158691406 25.768600463867188,23.716899871826172 25.329200744628906,24.188400268554688 C25.29170036315918,24.22879981994629 25.2544002532959,24.269500732421875 25.217100143432617,24.310199737548828 C25.040700912475586,24.501699447631836 24.857799530029297,24.683300018310547 24.66510009765625,24.85849952697754 C24.628000259399414,24.892499923706055 24.591100692749023,24.926700592041016 24.55419921875,24.96109962463379 C24.4330997467041,25.07390022277832 24.309499740600586,25.182300567626953 24.180500030517578,25.286100387573242 C24.131099700927734,25.325700759887695 24.082199096679688,25.365699768066406 24.03339958190918,25.406099319458008 C22.337400436401367,26.80660057067871 20.25670051574707,27.728900909423828 17.311800003051758,28.194499969482422 C17.283300399780273,28.197399139404297 17.283300399780273,28.197399139404297 17.254199981689453,28.20039939880371 C16.867000579833984,28.238800048828125 16.480899810791016,28.24720001220703 16.092100143432617,28.246200561523438 C16.044200897216797,28.2460994720459 15.996199607849121,28.246000289916992 15.9483003616333,28.246000289916992 C15.463500022888184,28.245100021362305 14.983499526977539,28.233200073242188 14.502099990844727,28.172199249267578 C14.486700057983398,28.170299530029297 14.47130012512207,28.168399810791016 14.455499649047852,28.166500091552734 C12.355899810791016,27.908000946044922 10.384300231933594,27.129600524902344 7.985060214996338,25.41710090637207 C7.9292402267456055,25.370899200439453 7.872729778289795,25.325700759887695 7.816349983215332,25.28019905090332 C7.713659763336182,25.196199417114258 7.61529016494751,25.10810089111328 7.517829895019531,25.01799964904785 C7.470049858093262,24.97439956665039 7.421760082244873,24.93199920654297 7.372779846191406,24.889799118041992 C7.281310081481934,24.809799194335938 7.194699764251709,24.725900650024414 7.108950138092041,24.63990020751953 C7.0937299728393555,24.62470054626465 7.078519821166992,24.609500885009766 7.062839984893799,24.593799591064453 C7.030940055847168,24.562000274658203 6.999070167541504,24.530000686645508 6.967219829559326,24.49810028076172 C6.918920040130615,24.44969940185547 6.870490074157715,24.401399612426758 6.8220601081848145,24.353099822998047 C6.7908501625061035,24.3218994140625 6.759650230407715,24.290599822998047 6.72845983505249,24.2593994140625 C6.71422004699707,24.24519920349121 6.699979782104492,24.231000900268555 6.685299873352051,24.216400146484375 C6.588240146636963,24.118799209594727 6.496930122375488,24.01740074157715 6.407289981842041,23.913000106811523 C6.385590076446533,23.888099670410156 6.363870143890381,23.863100051879883 6.342140197753906,23.838199615478516 C6.198090076446533,23.671899795532227 6.058899879455566,23.502599716186523 5.924880027770996,23.32819938659668 C5.895219802856445,23.289600372314453 5.865250110626221,23.251399993896484 5.835259914398193,23.213199615478516 C5.680729866027832,23.013700485229492 5.539700031280518,22.805599212646484 5.399630069732666,22.59589958190918 C5.390270233154297,22.581899642944336 5.3809099197387695,22.56800079345703 5.371270179748535,22.553600311279297 C4.2286601066589355,20.84510040283203 3.5148398876190186,18.86669921875 3.3076400756835938,16.821699142456055 C3.3057000637054443,16.802900314331055 3.3037500381469727,16.784000396728516 3.3017499446868896,16.76460075378418 C3.261820077896118,16.365999221801758 3.2549400329589844,15.968500137329102 3.2559499740600586,15.56820011138916 C3.256079912185669,15.517800331115723 3.2561399936676025,15.467399597167969 3.256200075149536,15.416899681091309 C3.256999969482422,14.937999725341797 3.2660000324249268,14.465100288391113 3.3299400806427,13.98960018157959 C3.3337199687957764,13.959500312805176 3.3374600410461426,13.929400444030762 3.3411800861358643,13.899299621582031 C3.5633699893951416,12.112600326538086 4.172220230102539,10.363800048828125 6.095099925994873,7.478129863739014 C6.1280999183654785,7.437260150909424 6.161089897155762,7.3963799476623535 6.194049835205078,7.355480194091797 C6.281489849090576,7.248509883880615 6.37313985824585,7.146130084991455 6.466700077056885,7.0445098876953125 C6.511030197143555,6.9960198402404785 6.554150104522705,6.946859836578369 6.596839904785156,6.896949768066406 C6.675260066986084,6.8064799308776855 6.760340213775635,6.723320007324219 6.8455400466918945,6.639279842376709 C6.8886799812316895,6.595489978790283 6.92855978012085,6.5513200759887695 6.967569828033447,6.503910064697266 C7.026010036468506,6.433720111846924 7.091450214385986,6.376440048217773 7.160950183868408,6.31742000579834 C7.216899871826172,6.267910003662109 7.269120216369629,6.215630054473877 7.321579933166504,6.162449836730957 C7.414770126342773,6.068419933319092 7.510749816894531,5.980649948120117 7.611480236053467,5.89484977722168 C7.633880138397217,5.875249862670898 7.6562700271606445,5.85561990737915 7.678639888763428,5.835969924926758 C7.863969802856445,5.673989772796631 8.055749893188477,5.522299766540527 8.252779960632324,5.374820232391357 C8.302989959716797,5.3371901512146 8.353010177612305,5.299300193786621 8.403030395507812,5.261410236358643 C10.009400367736816,4.052680015563965 11.927300453186035,3.244570016860962 14.434499740600586,2.8455400466918945 C14.477499961853027,2.840090036392212 14.520500183105469,2.8343698978424072 14.56350040435791,2.8286399841308594 C15.513400077819824,2.7060699462890625 16.540599822998047,2.719520092010498 17.49020004272461,2.8397998809814453 C17.49020004272461,2.8397998809814453 17.49020004272461,2.8397998809814453 17.49020004272461,2.8397998809814453z"></path></g></g></g></svg>