<svg viewBox="0 0 50 49" fill="none" xmlns="http://www.w3.org/2000/svg">
<path d="M27.3283 4.43709C27.3523 4.44005 27.3763 4.44301 27.4011 4.44605C30.4318 4.81913 33.3191 5.88336 37.6795 8.87554C37.7421 8.92828 37.8051 8.98068 37.8681 9.03299C38.2276 9.33259 38.5709 9.64766 38.8991 9.98125C38.9557 10.0368 39.0127 10.0869 39.0748 10.1361C39.1787 10.2243 39.2617 10.3184 39.3498 10.4218C39.4276 10.5096 39.5096 10.5917 39.5931 10.674C39.74 10.8196 39.8772 10.9696 40.0112 11.127C40.0419 11.162 40.0725 11.197 40.1032 11.2319C40.3563 11.5215 40.5933 11.8212 40.8238 12.129C40.8826 12.2075 40.9418 12.2856 41.001 12.3638C42.8896 14.8738 44.1523 17.8704 44.7758 21.7882C44.7843 21.8548 44.7932 21.9213 44.8022 21.9878C44.9973 23.4767 44.9847 25.1102 44.7847 26.5974C44.7788 26.6444 44.773 26.6915 44.7672 26.7386C44.4218 29.5161 43.4778 32.2334 41.5095 35.3779C41.4947 35.3994 41.4798 35.4209 41.4645 35.443C40.8917 36.2712 40.2633 37.0575 39.5768 37.7943C39.5181 37.8575 39.4599 37.921 39.4016 37.9846C39.1259 38.2839 38.8401 38.5675 38.5391 38.8414C38.481 38.8944 38.4233 38.9479 38.3658 39.0016C38.1766 39.1778 37.9834 39.3473 37.7818 39.5094C37.7047 39.5714 37.6282 39.6338 37.5521 39.6969C34.902 41.8851 31.6509 43.3263 27.0496 44.0538C27.005 44.0584 27.005 44.0584 26.9595 44.063C26.3545 44.123 25.7512 44.1362 25.1437 44.1346C25.0688 44.1344 24.9939 44.1343 24.9191 44.1342C24.1616 44.1329 23.4115 44.1143 22.6593 44.019C22.6353 44.016 22.6113 44.0131 22.5865 44.01C19.3059 43.6062 16.2253 42.3899 12.4765 39.7141C12.3893 39.642 12.301 39.5712 12.2129 39.5002C12.0524 39.3689 11.8987 39.2312 11.7464 39.0906C11.6718 39.0225 11.5963 38.9561 11.5198 38.8902C11.3769 38.7652 11.2415 38.6341 11.1076 38.4997C11.0838 38.476 11.06 38.4522 11.0355 38.4278C10.9857 38.378 10.9359 38.3281 10.8861 38.2782C10.8106 38.2025 10.735 38.1271 10.6593 38.0516C10.6105 38.0028 10.5618 37.954 10.5131 37.9052C10.4908 37.883 10.4685 37.8608 10.4456 37.838C10.294 37.6856 10.1513 37.527 10.0112 37.3639C9.97732 37.325 9.94339 37.286 9.90942 37.2471C9.68434 36.9873 9.46686 36.7228 9.25746 36.4501C9.21111 36.39 9.16428 36.3302 9.11742 36.2704C8.87597 35.9589 8.65561 35.6336 8.43675 35.306C8.42213 35.2842 8.40751 35.2623 8.39244 35.2399C6.60712 32.5703 5.49178 29.479 5.16802 26.2838C5.16499 26.2544 5.16195 26.225 5.15882 26.1947C5.09643 25.5717 5.08567 24.9507 5.08726 24.3253C5.08745 24.2465 5.08755 24.1676 5.08764 24.0888C5.0889 23.3405 5.10295 22.6017 5.20287 21.8587C5.20877 21.8116 5.21462 21.7646 5.22043 21.7175C5.5676 18.9258 6.51893 16.1933 9.52342 11.6845C9.57499 11.6206 9.62653 11.5567 9.67804 11.4928C9.81466 11.3257 9.95786 11.1657 10.1041 11.0069C10.1733 10.9312 10.2407 10.8544 10.3074 10.7764C10.4299 10.635 10.5629 10.5051 10.696 10.3738C10.7634 10.3054 10.8257 10.2363 10.8867 10.1623C10.978 10.0526 11.0802 9.9631 11.1888 9.87086C11.2762 9.79352 11.3578 9.71183 11.4398 9.62873C11.5854 9.4818 11.7354 9.34467 11.8928 9.21061C11.9278 9.17998 11.9627 9.1493 11.9977 9.11861C12.2873 8.86552 12.5869 8.6285 12.8948 8.39806C12.9733 8.33926 13.0514 8.28006 13.1296 8.22085C15.6396 6.33221 18.6362 5.06955 22.5537 4.44605C22.6209 4.43754 22.6881 4.42861 22.7553 4.41966C24.2395 4.22814 25.8446 4.24915 27.3283 4.43709ZM25.7255 5.79598C25.5381 6.09657 25.3579 6.40021 25.1833 6.70844C25.1343 6.79461 25.0852 6.88076 25.0361 6.9669C25.0238 6.98852 25.0115 7.01014 24.9988 7.03242C24.8761 7.24797 24.7521 7.46278 24.628 7.67751C24.447 7.99059 24.2671 8.30422 24.0879 8.61828C23.8009 9.12112 23.5116 9.62255 23.2219 10.1238C23.157 10.2361 23.0922 10.3483 23.0273 10.4606C23.0059 10.4978 22.9844 10.5349 22.9624 10.5732C22.7898 10.8723 22.6186 11.1721 22.4476 11.4721C22.2681 11.7867 22.0864 12.1 21.9034 12.4126C21.7186 12.7285 21.537 13.0462 21.3559 13.3643C21.3231 13.4218 21.3231 13.4218 21.2897 13.4805C21.2685 13.5177 21.2474 13.5549 21.2256 13.5932C21.1391 13.7436 21.0504 13.8926 20.9612 14.0415C20.9117 14.1182 20.9117 14.1182 20.9172 14.1932C27.3562 14.1932 33.7952 14.1932 40.4293 14.1932C40.3777 14.0642 40.343 13.9863 40.2648 13.8795C40.2462 13.8539 40.2276 13.8283 40.2084 13.8019C40.1787 13.7617 40.1787 13.7617 40.1484 13.7206C40.1281 13.6928 40.1077 13.6649 40.0867 13.6362C40.0269 13.5546 39.9669 13.4732 39.9067 13.3918C39.891 13.3706 39.8754 13.3493 39.8593 13.3274C39.4962 12.8354 39.1085 12.3632 38.6964 11.9114C38.6537 11.864 38.6111 11.8164 38.5699 11.7677C38.3852 11.5511 38.1849 11.3511 37.9835 11.1504C37.9229 11.0901 37.8626 11.0296 37.8023 10.969C37.6037 10.7703 37.4038 10.5765 37.1889 10.3953C37.15 10.3614 37.111 10.3275 37.0721 10.2935C34.7977 8.32311 32.068 6.93721 29.1401 6.24894C29.0989 6.23924 29.0577 6.22955 29.0152 6.21956C27.932 5.96996 26.8347 5.84518 25.7255 5.79598ZM22.9185 5.88526C22.8935 5.88826 22.8685 5.89126 22.8428 5.89435C20.2994 6.20331 17.7986 7.01706 15.6066 8.35432C15.5216 8.40611 15.436 8.457 15.3503 8.50762C14.5963 8.95572 13.8878 9.48273 13.2168 10.0469C13.1896 10.0696 13.1896 10.0696 13.1618 10.0929C12.6821 10.4952 12.2314 10.9247 11.7882 11.3665C11.771 11.3837 11.7537 11.4008 11.736 11.4185C11.5366 11.617 11.3432 11.8184 11.1611 12.0329C11.1272 12.0719 11.0932 12.1108 11.0592 12.1497C10.5601 12.7258 10.0958 13.3326 9.66933 13.9645C9.65489 13.9857 9.64044 14.0069 9.62556 14.0288C9.5301 14.1705 9.5301 14.1705 9.48858 14.3326C9.52427 14.4255 9.52427 14.4255 9.58236 14.5226C9.60353 14.5603 9.62471 14.5979 9.64652 14.6368C9.67008 14.6776 9.69366 14.7185 9.71724 14.7594C9.74137 14.8019 9.76546 14.8444 9.78952 14.887C9.86277 15.0162 9.93687 15.1448 10.0112 15.2733C10.0428 15.3279 10.0428 15.3279 10.075 15.3836C10.1742 15.5545 10.2739 15.7251 10.374 15.8955C10.5088 16.1256 10.6413 16.357 10.7734 16.5887C10.785 16.609 10.7967 16.6294 10.8086 16.6504C10.8677 16.7539 10.9267 16.8574 10.9857 16.961C11.0905 17.1448 11.1955 17.3285 11.3005 17.5121C11.3586 17.6137 11.4166 17.7153 11.4746 17.8169C11.4979 17.8575 11.5211 17.8982 11.5443 17.9388C11.5908 18.0201 11.6372 18.1014 11.6837 18.1827C11.6952 18.2029 11.7067 18.223 11.7185 18.2437C11.7418 18.2844 11.765 18.325 11.7882 18.3657C11.8463 18.4672 11.9043 18.5688 11.9624 18.6704C12.0673 18.8539 12.1722 19.0375 12.2769 19.2211C12.5138 19.6362 12.7512 20.0511 12.9903 20.465C13.4184 21.206 13.842 21.9494 14.2621 22.6949C14.3741 22.5922 14.4448 22.4903 14.5172 22.357C14.5385 22.318 14.5598 22.2791 14.5818 22.239C14.5929 22.2185 14.604 22.198 14.6154 22.177C14.6736 22.0693 14.7327 21.9621 14.7917 21.8549C14.8033 21.8337 14.8149 21.8126 14.8268 21.7908C14.9139 21.6325 15.0036 21.476 15.0962 21.3208C15.2481 21.0656 15.3956 20.808 15.5426 20.5499C15.7181 20.2419 15.8948 19.9346 16.0739 19.6287C16.2613 19.3087 16.4461 18.9873 16.6298 18.6651C16.7979 18.3703 16.9668 18.0759 17.1367 17.782C17.3176 17.469 17.4975 17.1553 17.6767 16.8413C17.9637 16.3384 18.2531 15.837 18.5427 15.3357C18.6076 15.2235 18.6724 15.1112 18.7373 14.9989C18.7587 14.9618 18.7802 14.9247 18.8023 14.8864C18.9748 14.5873 19.146 14.2874 19.3171 13.9875C19.4967 13.6725 19.6787 13.3589 19.8619 13.0459C20.0291 12.7598 20.1939 12.4722 20.358 12.1843C20.5261 11.8894 20.6951 11.5951 20.8649 11.3012C21.0458 10.9881 21.2257 10.6745 21.405 10.3604C21.6919 9.8576 21.9813 9.35617 22.271 8.8549C22.3358 8.74265 22.4007 8.63038 22.4655 8.51811C22.4869 8.48096 22.5084 8.44382 22.5305 8.40554C22.6436 8.20939 22.7564 8.01303 22.8686 7.81634C22.8803 7.79591 22.892 7.77549 22.904 7.75444C22.951 7.67203 22.998 7.58961 23.0449 7.50718C23.1697 7.28824 23.2951 7.06974 23.4227 6.85244C23.4445 6.8153 23.4663 6.77816 23.4888 6.73989C23.5294 6.67098 23.57 6.60214 23.6108 6.53339C23.7458 6.3042 23.8671 6.06999 23.9834 5.83082C23.6241 5.8236 23.2756 5.84146 22.9185 5.88526ZM20.0112 15.6915C19.9977 15.7157 19.9842 15.7399 19.9703 15.7649C19.9076 15.877 19.845 15.9891 19.7823 16.1013C19.761 16.1394 19.7398 16.1775 19.7179 16.2167C19.5758 16.4707 19.4311 16.7231 19.2839 16.9741C19.2615 17.0124 19.2391 17.0506 19.216 17.0901C19.1894 17.1354 19.1894 17.1354 19.1622 17.1817C19.0253 17.4157 18.891 17.651 18.7569 17.8866C18.5843 18.1895 18.4104 18.4916 18.2342 18.7925C18.0597 19.0906 17.8871 19.3897 17.7159 19.6897C17.7043 19.71 17.6927 19.7304 17.6808 19.7513C17.5981 19.8962 17.5154 20.0412 17.4328 20.1862C17.3385 20.3518 17.2442 20.5173 17.1497 20.6827C17.1381 20.7031 17.1265 20.7234 17.1146 20.7444C16.9355 21.058 16.7542 21.3703 16.5717 21.6819C16.3927 21.9881 16.2168 22.296 16.0411 22.604C15.8339 22.9674 15.625 23.3297 15.4157 23.6919C15.397 23.7246 15.3783 23.7574 15.359 23.7911C15.3274 23.8453 15.2948 23.899 15.2606 23.9517C15.1982 24.0493 15.1666 24.106 15.176 24.2234C15.2038 24.3366 15.2417 24.4168 15.301 24.5169C15.3216 24.552 15.3422 24.5872 15.3634 24.6234C15.3859 24.6611 15.4084 24.6988 15.4315 24.7376C15.4552 24.7778 15.4788 24.818 15.5023 24.8582C15.5392 24.9212 15.5761 24.9841 15.6131 25.0469C15.7449 25.2707 15.8735 25.4963 16.0021 25.7219C16.0371 25.7833 16.0722 25.8447 16.1072 25.9061C16.1424 25.9677 16.1776 26.0294 16.2128 26.091C16.2826 26.2135 16.3526 26.3359 16.4225 26.4583C16.4398 26.4884 16.4398 26.4884 16.4573 26.5192C16.4921 26.5801 16.5269 26.641 16.5618 26.7019C16.6899 26.926 16.818 27.1502 16.9459 27.3744C17.1828 27.7896 17.4202 28.2044 17.6593 28.6183C17.9103 29.0526 18.1593 29.4881 18.4079 29.9238C18.4778 30.0462 18.5477 30.1686 18.6176 30.291C18.6291 30.3111 18.6406 30.3313 18.6525 30.352C18.7104 30.4534 18.7684 30.5548 18.8263 30.6561C18.9319 30.8409 19.0375 31.0257 19.1428 31.2107C19.1906 31.2948 19.2386 31.3788 19.2865 31.4629C19.3188 31.5197 19.3511 31.5766 19.3834 31.6334C19.4256 31.7073 19.4687 31.7807 19.5127 31.8535C19.5758 31.9615 19.6249 32.0716 19.6732 32.187C19.8371 32.5583 19.8371 32.5583 20.14 32.8097C20.4194 32.8836 20.7072 32.8709 20.9938 32.8666C21.0901 32.8675 21.1864 32.8695 21.2828 32.8715C21.5165 32.8756 21.75 32.8755 21.9837 32.8739C22.1738 32.8726 22.3639 32.8728 22.554 32.874C22.5947 32.8742 22.5947 32.8742 22.6363 32.8745C22.6914 32.8748 22.7466 32.8752 22.8017 32.8755C23.3181 32.8786 23.8343 32.8769 24.3507 32.8736C24.7927 32.8709 25.2346 32.8727 25.6766 32.8777C26.191 32.8836 26.7054 32.8863 27.2198 32.8843C27.2748 32.8841 27.3298 32.8839 27.3848 32.8837C27.4118 32.8836 27.4389 32.8835 27.4667 32.8834C27.6563 32.883 27.8459 32.8848 28.0355 32.8875C28.267 32.8908 28.4983 32.8907 28.7298 32.8864C28.848 32.8842 28.9652 32.8841 29.0834 32.8871C29.5095 32.8988 29.5095 32.8988 29.9067 32.7646C30.1397 32.5284 30.2797 32.2319 30.4147 31.9322C30.4754 31.7993 30.5457 31.6767 30.621 31.5516C30.6617 31.4798 30.7023 31.408 30.7429 31.3361C30.9479 30.9752 31.1576 30.6175 31.3701 30.2609C31.5358 29.9822 31.6978 29.7016 31.8579 29.4197C32.0629 29.0588 32.2726 28.7011 32.4851 28.3446C32.6508 28.0659 32.8127 27.7852 32.9729 27.5033C33.1555 27.1819 33.3411 26.8626 33.5304 26.5451C33.7448 26.1853 33.9547 25.8232 34.1612 25.4588C34.2758 25.2568 34.3918 25.0558 34.5113 24.8567C34.5342 24.8183 34.5572 24.7799 34.5808 24.7403C34.6243 24.6676 34.6682 24.5951 34.7124 24.5228C34.7317 24.4906 34.7509 24.4583 34.7707 24.4251C34.7878 24.397 34.8049 24.3689 34.8225 24.34C34.8606 24.248 34.8557 24.2148 34.8196 24.1235C34.7726 24.0322 34.7243 23.9428 34.6737 23.8535C34.6507 23.8125 34.6507 23.8125 34.6272 23.7707C34.459 23.4721 34.2856 23.1766 34.1124 22.8809C33.9821 22.6583 33.853 22.435 33.7242 22.2115C33.7025 22.1739 33.6808 22.1363 33.6585 22.0975C33.6145 22.0212 33.5706 21.9449 33.5266 21.8685C33.4176 21.6794 33.3085 21.4903 33.1994 21.3012C33.1558 21.2257 33.1123 21.1502 33.0687 21.0747C33.0364 21.0187 33.0364 21.0187 33.0034 20.9615C32.8074 20.6218 32.8074 20.6218 32.7421 20.5085C32.6985 20.4331 32.655 20.3576 32.6115 20.2822C32.5021 20.0926 32.3928 19.903 32.2835 19.7134C32.0729 19.3478 31.8617 18.9826 31.6489 18.6183C31.4803 18.3299 31.3127 18.0409 31.1458 17.7516C31.1242 17.7141 31.1026 17.6766 31.0803 17.638C30.9693 17.4454 30.8585 17.2528 30.7478 17.0601C30.7255 17.0213 30.7031 16.9824 30.6801 16.9424C30.6386 16.8702 30.5971 16.7979 30.5557 16.7256C30.5162 16.657 30.4757 16.5889 30.4342 16.5215C30.3757 16.4225 30.3317 16.3222 30.2886 16.2158C30.137 15.8724 30.137 15.8724 29.8484 15.6515C29.5868 15.5923 29.32 15.6022 29.0535 15.6106C28.9319 15.6136 28.8104 15.6126 28.6888 15.612C28.4786 15.6117 28.2685 15.6138 28.0583 15.6178C27.7544 15.6235 27.4506 15.6252 27.1467 15.6261C26.6535 15.6276 26.1604 15.6323 25.6673 15.6389C25.1885 15.6453 24.7098 15.6502 24.2309 15.6532C24.1866 15.6534 24.1866 15.6534 24.1414 15.6537C23.9931 15.6546 23.8449 15.6555 23.6966 15.6564C22.4681 15.6636 21.2397 15.6759 20.0112 15.6915ZM31.6489 15.6915C31.6816 15.7515 31.7143 15.8116 31.747 15.8716C31.7743 15.9218 31.7743 15.9218 31.8022 15.973C31.8892 16.1318 31.9779 16.2895 32.067 16.4471C32.0864 16.4815 32.1059 16.5159 32.1259 16.5514C32.2856 16.833 32.4481 17.1128 32.6115 17.3921C32.8279 17.7618 33.0417 18.1328 33.2554 18.5039C33.3644 18.6931 33.4735 18.8822 33.5827 19.0712C33.7138 19.2985 33.8449 19.5258 33.9759 19.7531C34.1865 20.1187 34.3977 20.484 34.6105 20.8482C34.8456 21.2506 35.0786 21.6541 35.3112 22.0579C35.4202 22.2471 35.5293 22.4362 35.6384 22.6252C35.682 22.7007 35.7255 22.7762 35.7691 22.8517C35.7906 22.8891 35.8122 22.9265 35.8344 22.965C36.0304 23.3047 36.0304 23.3047 36.0957 23.4179C36.1393 23.4934 36.1828 23.5688 36.2263 23.6443C36.3357 23.8338 36.445 24.0234 36.5543 24.2131C36.7649 24.5786 36.9761 24.9439 37.1889 25.3082C37.424 25.7105 37.657 26.1141 37.8896 26.5179C37.9986 26.707 38.1077 26.8961 38.2168 27.0852C38.3479 27.3124 38.479 27.5397 38.61 27.7671C38.8207 28.1326 39.0318 28.4979 39.2447 28.8622C39.4798 29.2645 39.7127 29.6681 39.9453 30.0719C40.0759 30.2985 40.2067 30.5251 40.3375 30.7517C40.4486 30.9443 40.5597 31.137 40.6707 31.3297C40.9134 31.7511 41.1572 32.1719 41.405 32.5904C41.5441 32.4171 41.6258 32.2161 41.7185 32.0155C41.7285 31.994 41.7385 31.9724 41.7487 31.9503C42.5312 30.2537 43.0458 28.458 43.2974 26.6083C43.3025 26.5706 43.3076 26.5329 43.3129 26.494C43.4075 25.7464 43.439 25.0007 43.4367 24.2476C43.4367 24.2035 43.4366 24.1593 43.4366 24.1139C43.4349 23.4141 43.4118 22.7271 43.3213 22.0329C43.3155 21.9863 43.3096 21.9397 43.3038 21.893C43.0832 20.1611 42.6057 16.9619 41.3353 15.6915C41.2835 15.6881 41.2316 15.6871 41.1797 15.6872C41.1459 15.6871 41.1121 15.687 41.0772 15.687C41.0397 15.6871 41.0021 15.6872 40.9633 15.6873C40.904 15.6872 40.904 15.6872 40.8434 15.6872C40.733 15.6871 40.6227 15.6872 40.5123 15.6874C40.3935 15.6876 40.2747 15.6875 40.1558 15.6875C39.9498 15.6875 39.7437 15.6876 39.5377 15.6878C39.2398 15.688 38.9419 15.6881 38.644 15.6882C38.1607 15.6883 37.6774 15.6885 37.1942 15.6888C36.7246 15.6891 36.255 15.6894 35.7854 15.6895C35.742 15.6895 35.742 15.6895 35.6978 15.6896C35.5527 15.6896 35.4076 15.6897 35.2625 15.6897C34.0579 15.6901 32.8534 15.6907 31.6489 15.6915ZM8.58266 15.796C8.276 16.413 7.99373 17.0339 7.74642 17.6775C7.73166 17.7158 7.71689 17.754 7.70168 17.7935C7.1819 19.155 6.84272 20.5869 6.66628 22.0329C6.66107 22.0735 6.65586 22.1141 6.65049 22.156C6.47699 23.5573 6.48384 25.0231 6.66628 26.4232C6.67214 26.4698 6.67799 26.5164 6.68384 26.563C6.90441 28.295 7.38187 31.4941 8.65234 32.7646C8.70411 32.768 8.75603 32.7689 8.80791 32.7689C8.84172 32.769 8.87553 32.769 8.91037 32.7691C8.96675 32.769 8.96675 32.769 9.02427 32.7688C9.08364 32.7689 9.08365 32.7689 9.14422 32.7689C9.25458 32.769 9.36494 32.7688 9.47531 32.7687C9.59414 32.7685 9.71296 32.7686 9.83179 32.7686C10.0378 32.7686 10.2439 32.7685 10.4499 32.7683C10.7478 32.768 11.0457 32.7679 11.3436 32.7679C11.8269 32.7678 12.3102 32.7676 12.7935 32.7673C13.263 32.7669 13.7326 32.7667 14.2022 32.7665C14.2456 32.7665 14.2456 32.7665 14.2898 32.7665C14.4349 32.7665 14.58 32.7664 14.7251 32.7664C15.9297 32.766 17.1342 32.7654 18.3388 32.7646C18.3063 32.6989 18.2737 32.6333 18.2411 32.5676C18.223 32.5311 18.2048 32.4945 18.1862 32.4568C18.0987 32.286 18.0013 32.1216 17.9032 31.9567C17.7311 31.6647 17.5627 31.371 17.398 31.0747C17.2204 30.7557 17.0386 30.4393 16.854 30.1243C16.6982 29.8584 16.5446 29.5915 16.3919 29.3239C16.3803 29.3035 16.3687 29.2831 16.3567 29.2622C16.2976 29.1586 16.2386 29.0551 16.1796 28.9515C16.0748 28.7677 15.9698 28.5841 15.8648 28.4004C15.8068 28.2988 15.7487 28.1972 15.6907 28.0956C15.6674 28.055 15.6442 28.0143 15.621 27.9737C15.5745 27.8924 15.5281 27.8111 15.4816 27.7298C15.4701 27.7097 15.4586 27.6895 15.4468 27.6688C15.4235 27.6282 15.4003 27.5875 15.3771 27.5468C15.319 27.4453 15.261 27.3437 15.2029 27.2421C15.0863 27.038 14.9697 26.8339 14.8532 26.6298C14.726 26.4069 14.5987 26.1841 14.4712 25.9614C14.4477 25.9204 14.4242 25.8794 14.4008 25.8384C14.3191 25.6957 14.2373 25.5531 14.1554 25.4105C14.1347 25.3743 14.1139 25.3381 14.0926 25.3007C13.9942 25.1299 13.8935 24.9616 13.7865 24.7959C13.6848 24.6376 13.5956 24.4765 13.5108 24.3086C13.3581 24.0125 13.1927 23.7251 13.0236 23.438C12.8756 23.1863 12.7315 22.9327 12.5896 22.6775C12.412 22.3584 12.2303 22.0421 12.0456 21.727C11.8899 21.4612 11.7362 21.1942 11.5835 20.9266C11.5719 20.9063 11.5603 20.8859 11.5483 20.8649C11.4893 20.7614 11.4303 20.6579 11.3712 20.5543C11.2665 20.3705 11.1615 20.1868 11.0565 20.0032C10.9984 19.9016 10.9404 19.8 10.8823 19.6984C10.8591 19.6578 10.8359 19.6171 10.8126 19.5765C10.7662 19.4952 10.7197 19.4139 10.6733 19.3326C10.6618 19.3124 10.6503 19.2923 10.6384 19.2716C10.6152 19.2309 10.5919 19.1903 10.5687 19.1496C10.5107 19.0481 10.4527 18.9466 10.3947 18.8451C10.2894 18.6609 10.1842 18.4767 10.0791 18.2924C10.0202 18.1891 9.96129 18.0857 9.90234 17.9824C9.89076 17.9621 9.87917 17.9418 9.86723 17.9208C9.70643 17.6391 9.54377 17.3585 9.3797 17.0786C9.13106 16.6545 8.89103 16.2258 8.65234 15.796C8.62935 15.796 8.60635 15.796 8.58266 15.796ZM35.6907 25.7263C35.6778 25.7488 35.6648 25.7713 35.6515 25.7945C35.4011 26.2309 35.1489 26.666 34.8915 27.0982C34.6895 27.4375 34.4919 27.7789 34.297 28.1221C34.1035 28.4625 33.9051 28.7996 33.7046 29.1359C33.5389 29.4146 33.377 29.6952 33.2168 29.9772C33.0118 30.338 32.8021 30.6958 32.5896 31.0523C32.4119 31.3511 32.2388 31.6523 32.0672 31.9546C31.8927 32.2616 31.7144 32.566 31.5334 32.8692C31.3526 33.1722 31.1779 33.4774 31.0096 33.7876C30.9065 33.9769 30.797 34.1609 30.6825 34.3436C30.4181 34.7693 30.1733 35.2079 29.9235 35.6422C29.9021 35.6793 29.8808 35.7164 29.8588 35.7546C29.8372 35.7922 29.8156 35.8297 29.7933 35.8684C29.6365 36.1403 29.4771 36.4105 29.3165 36.6801C29.1146 37.0193 28.917 37.3608 28.722 37.704C28.5286 38.0443 28.3301 38.3815 28.1297 38.7178C27.964 38.9965 27.802 39.2771 27.6419 39.559C27.4593 39.8804 27.2737 40.1997 27.0844 40.5172C26.8213 40.9588 26.5662 41.4046 26.312 41.8513C26.1644 42.1101 26.0146 42.3677 25.8649 42.6252C25.968 42.6768 26.0519 42.6559 26.1665 42.6468C26.1902 42.6449 26.214 42.643 26.2384 42.641C26.3172 42.6346 26.3959 42.6278 26.4746 42.6209C26.5019 42.6185 26.5291 42.6161 26.5571 42.6137C29.6222 42.3422 32.5202 41.3211 36.1924 38.871C36.2501 38.8258 36.3081 38.7811 36.3662 38.7364C37.0184 38.2325 37.6162 37.671 38.1994 37.0895C38.2166 37.0724 38.2339 37.0552 38.2516 37.0376C38.451 36.839 38.6444 36.6377 38.8266 36.4232C38.8605 36.3842 38.8944 36.3453 38.9284 36.3064C39.426 35.7319 39.8907 35.1274 40.3139 34.4959C40.3278 34.4753 40.3416 34.4547 40.3559 34.4334C40.393 34.3772 40.4286 34.3201 40.4642 34.2629C40.4848 34.2303 40.5054 34.1976 40.5266 34.164C40.5808 34.0564 40.5808 34.0564 40.5377 33.9549C40.5171 33.9209 40.4965 33.8869 40.4753 33.8518C40.4411 33.7938 40.4411 33.7938 40.4063 33.7346C40.3806 33.6929 40.3549 33.6512 40.3292 33.6096C40.3032 33.566 40.2772 33.5224 40.2514 33.4788C40.1981 33.3889 40.1443 33.2993 40.0902 33.2098C39.9721 33.0139 39.8592 32.8151 39.7455 32.6165C39.5596 32.294 39.3721 31.9723 39.1843 31.6508C38.9694 31.2829 38.7567 30.9137 38.544 30.5445C38.435 30.3553 38.3259 30.1663 38.2168 29.9772C38.1732 29.9017 38.1297 29.8262 38.0861 29.7507C38.0646 29.7133 38.043 29.6759 38.0208 29.6374C37.8248 29.2977 37.8248 29.2977 37.7595 29.1845C37.716 29.109 37.6724 29.0336 37.6289 28.9582C37.5195 28.7686 37.4102 28.579 37.3009 28.3893C37.0707 27.9897 36.8395 27.5906 36.6067 27.1924C36.4501 26.9241 36.2945 26.6553 36.1393 26.3861C36.1174 26.3482 36.0955 26.3103 36.073 26.2712C35.9684 26.0898 35.8641 25.9082 35.7604 25.7263C35.7374 25.7263 35.7144 25.7263 35.6907 25.7263ZM9.55827 34.2629C9.60988 34.3919 9.64462 34.4698 9.72282 34.5766C9.74143 34.6022 9.76004 34.6278 9.77921 34.6542C9.799 34.681 9.8188 34.7078 9.83919 34.7354C9.85955 34.7633 9.8799 34.7911 9.90087 34.8198C9.96067 34.9015 10.0207 34.9829 10.0809 35.0643C10.0966 35.0855 10.1122 35.1068 10.1283 35.1286C10.4914 35.6206 10.8791 36.0929 11.2912 36.5447C11.3339 36.5921 11.3765 36.6397 11.4178 36.6884C11.6024 36.9049 11.8027 37.1049 12.0042 37.3056C12.0647 37.366 12.125 37.4265 12.1853 37.487C12.3839 37.6857 12.5838 37.8796 12.7987 38.0608C12.8377 38.0947 12.8766 38.1286 12.9155 38.1626C15.4048 40.3191 18.4399 41.7825 24.1576 42.6601C24.1708 42.637 24.1841 42.614 24.1978 42.5902C24.4588 42.137 24.7205 41.6843 24.9844 41.2329C25.1323 40.9797 25.2788 40.7257 25.425 40.4715C25.6033 40.1615 25.7843 39.8532 25.9672 39.546C26.1692 39.2068 26.3667 38.8654 26.5617 38.5221C26.7552 38.1818 26.9536 37.8446 27.1541 37.5083C27.3198 37.2296 27.4817 36.949 27.6419 36.6671C27.8253 36.3443 28.0117 36.0235 28.2016 35.7045C28.382 35.4011 28.5618 35.0973 28.739 34.7919C28.7736 34.7322 28.8085 34.6726 28.8433 34.6129C28.8744 34.5592 28.8744 34.5592 28.906 34.5045C28.9244 34.4729 28.9427 34.4413 28.9616 34.4087C29.0061 34.3365 29.0061 34.3365 29.0008 34.2629C22.5847 34.2629 16.1687 34.2629 9.55827 34.2629Z" fill="currentcolor"></path></svg>